<svg xmlns="http://www.w3.org/2000/svg" width="32" height="32" version="1.1" viewBox="0 0 32 32"><g fill="none" fill-rule="evenodd" stroke="none" stroke-width="1"><circle cx="16" cy="16" r="16" fill="#4a6fa5"/><path fill="#fff" d="M22,12 C22,9.79086 20.2091,8 18,8 C15.7909,8 14,9.79086 14,12 C14,14.2091 15.7909,16 18,16 C20.2091,16 22,14.2091 22,12 Z"/><path fill="#fff" d="M24,21.5 C24,18.4624 21.5376,16 18.5,16 L17.5,16 C14.4624,16 12,18.4624 12,21.5 L12,24 L24,24 L24,21.5 Z"/><circle cx="10" cy="12" r="2" fill="#4a6fa5"/><path fill="#4a6fa5" d="M8,21.5 C8,18.4624 10.4624,16 13.5,16 L13.5,16 C13.5,16 14,18 14,20 C14,22 13,24 13,24 L8,24 L8,21.5 Z"/></g></svg>